<svg width="1707" height="485" viewBox="0 0 1707 485" fill="none" xmlns="http://www.w3.org/2000/svg">
<path d="M768 126V359H725V259H608V359H566V126H608V220H725V126H768Z" fill="#323B5A"/>
<path d="M900 271L808 126H858L922 231L988 126H1037L944 271V359H901V271H900Z" fill="#323B5A"/>
<path d="M1106 163V223H1228V262H1106V359H1064V126H1240V163H1106Z" fill="#323B5A"/>
<path d="M1320 163V220H1454V259H1320V320H1454V359H1278V126H1454V163H1320Z" fill="#323B5A"/>
<path d="M1498 126H1540L1664 290V126H1707V359H1664L1540 194V359H1498V126Z" fill="#323B5A"/>
<path d="M243 0C108.809 0 0 107.701 0 242C0 376.299 108.698 485 243 485C377.302 485 486 376.299 486 242C486 107.701 377.302 0 243 0ZM243 81L347 142L243 202L138 142L243 81ZM243 402L104 322V164L379 323L243 402ZM382 283L281 224L382 166V283Z" fill="#3DB479"/>
</svg>
